<svg id="mit" xmlns="http://www.w3.org/2000/svg" xmlns:xlink="http://www.w3.org/1999/xlink" width="300" height="84.601" viewBox="0 0 300 84.601">
  <defs>
    <clipPath id="clip-path">
      <rect id="Rectangle_4" data-name="Rectangle 4" width="300" height="84.601" fill="none"/>
    </clipPath>
  </defs>
  <g id="Group_4" data-name="Group 4" clip-path="url(#clip-path)">
    <path id="Path_2" data-name="Path 2" d="M118.987,22.287,93.215,68.554s37.247-4.309,64.134,25.661Z" transform="translate(-40.209 -9.614)" fill="#1a4684"/>
    <path id="Path_3" data-name="Path 3" d="M113.37,17.126a8.563,8.563,0,1,0-8.563-8.563,8.563,8.563,0,0,0,8.563,8.563" transform="translate(-45.209 0)" fill="#1a4684"/>
    <path id="Path_4" data-name="Path 4" d="M0,94.215C22.264,71.181,47.61,69.132,47.61,69.132l9.076-17.218L38.533,22.287Z" transform="translate(0 -9.614)" fill="#008dea"/>
    <path id="Path_5" data-name="Path 5" d="M79.639,17.126a8.563,8.563,0,1,0-8.563-8.563,8.563,8.563,0,0,0,8.563,8.563" transform="translate(-30.659 0)" fill="#008dea"/>
    <path id="Path_6" data-name="Path 6" d="M253.826,42.963l-11,25.137L231.872,43.066l-.045-.1h-8.074V77.592h7.339V56.684l9.047,20.8.044.1h5.238l9.141-21.007V77.592h7.29V42.963Z" transform="translate(-96.517 -18.533)" fill="#fff"/>
    <path id="Path_7" data-name="Path 7" d="M319.314,64.393a13.045,13.045,0,0,0-17.851,0,12.312,12.312,0,0,0,0,17.308,13.1,13.1,0,0,0,17.851,0,12.316,12.316,0,0,0,0-17.308m-13.029,4.031a5.59,5.59,0,0,1,8.208,0,6.725,6.725,0,0,1,1.607,4.634,6.644,6.644,0,0,1-1.606,4.612,5.636,5.636,0,0,1-8.209,0,6.646,6.646,0,0,1-1.606-4.612,6.728,6.728,0,0,1,1.606-4.634" transform="translate(-128.505 -26.253)" fill="#fff"/>
    <path id="Path_8" data-name="Path 8" d="M359.628,75.715h3.324V80.9h-4.415a10.658,10.658,0,0,1-6.5-1.714q-2.281-1.714-2.282-5.67V61.605h-2.926V56.551h2.926V50.53h7v6.021H362.9v5.054h-6.152V73.517a2.02,2.02,0,0,0,.645,1.692,3.709,3.709,0,0,0,2.232.506" transform="translate(-149.607 -21.797)" fill="#fff"/>
    <path id="Path_9" data-name="Path 9" d="M386.015,42.043a4.082,4.082,0,1,0,4.082,4.082,4.087,4.087,0,0,0-4.082-4.082" transform="translate(-164.75 -18.136)" fill="#fff"/>
    <rect id="Rectangle_2" data-name="Rectangle 2" width="6.995" height="24.349" transform="translate(217.617 34.756)" fill="#fff"/>
    <path id="Path_10" data-name="Path 10" d="M422.757,61.12l-6.686,18.554L409.34,61.12h-7.46L411.7,85.384l.034.085h8.635l9.852-24.349Z" transform="translate(-173.354 -26.364)" fill="#fff"/>
    <rect id="Rectangle_3" data-name="Rectangle 3" width="6.995" height="34.629" transform="translate(260.779 24.431)" fill="#909497"/>
    <path id="Path_11" data-name="Path 11" d="M476.876,42.963V50.02h10.719V77.592h6.994V50.02h10.719V42.963Z" transform="translate(-205.704 -18.533)" fill="#909497"/>
    <path id="Path_12" data-name="Path 12" d="M299.82,116.145v1.888h3.049v1.072H299.82v2.833h-1.161v-6.876h4.585l-.01,1.082Z" transform="translate(-128.829 -49.633)" fill="#909497"/>
    <path id="Path_13" data-name="Path 13" d="M310.587,120.366a1.759,1.759,0,0,0,2.557,0,2.222,2.222,0,0,0,.472-1.5v-3.807h1.161v3.856a3.062,3.062,0,0,1-.816,2.288,3.139,3.139,0,0,1-4.191,0,3.061,3.061,0,0,1-.816-2.288v-3.856h1.16v3.807a2.22,2.22,0,0,0,.473,1.5" transform="translate(-133.269 -49.633)" fill="#909497"/>
    <path id="Path_14" data-name="Path 14" d="M324.5,116.125v5.814h-1.161v-5.814h-2.086v-1.062h5.332v1.062Z" transform="translate(-138.574 -49.633)" fill="#909497"/>
    <path id="Path_15" data-name="Path 15" d="M334.322,120.366a1.759,1.759,0,0,0,2.558,0,2.223,2.223,0,0,0,.472-1.5v-3.807h1.161v3.856a3.062,3.062,0,0,1-.816,2.288,3.14,3.14,0,0,1-4.191,0,3.062,3.062,0,0,1-.816-2.288v-3.856h1.161v3.807a2.219,2.219,0,0,0,.473,1.5" transform="translate(-143.508 -49.633)" fill="#909497"/>
    <path id="Path_16" data-name="Path 16" d="M351.619,117.3a2,2,0,0,1-1.485,2.145l1.8,2.5h-1.476l-1.643-2.311h-1.525v2.311h-1.16v-6.877h2.558a3.7,3.7,0,0,1,2.252.532,2.027,2.027,0,0,1,.679,1.7m-1.543.974a1.229,1.229,0,0,0,.353-.979,1.046,1.046,0,0,0-.364-.925,2.419,2.419,0,0,0-1.3-.25h-1.476v2.459h1.446a2.133,2.133,0,0,0,1.339-.3" transform="translate(-149.306 -49.633)" fill="#909497"/>
    <path id="Path_17" data-name="Path 17" d="M363.554,115.062v1.092h-3.669v1.82h3.3v1.033h-3.3v1.84h3.787v1.092h-4.948v-6.877Z" transform="translate(-154.738 -49.633)" fill="#909497"/>
    <path id="Path_18" data-name="Path 18" d="M380.2,120.863a3.771,3.771,0,0,1-5.155,0,3.61,3.61,0,0,1,0-5.076,3.772,3.772,0,0,1,5.155,0,3.609,3.609,0,0,1,0,5.076m-.851-4.3a2.411,2.411,0,0,0-3.453,0,2.569,2.569,0,0,0,0,3.532,2.411,2.411,0,0,0,3.453,0,2.568,2.568,0,0,0,0-3.532" transform="translate(-161.328 -49.506)" fill="#909497"/>
    <path id="Path_19" data-name="Path 19" d="M390.471,116.145v1.888h3.049v1.072h-3.049v2.833H389.31v-6.876h4.585l-.01,1.082Z" transform="translate(-167.931 -49.633)" fill="#909497"/>
    <path id="Path_20" data-name="Path 20" d="M406.6,116.125v5.814h-1.16v-5.814h-2.086v-1.062h5.332v1.062Z" transform="translate(-173.991 -49.633)" fill="#909497"/>
    <path id="Path_21" data-name="Path 21" d="M419.779,115.062v1.092H416.11v1.82h3.3v1.033h-3.3v1.84H419.9v1.092h-4.948v-6.877Z" transform="translate(-178.99 -49.633)" fill="#909497"/>
    <path id="Path_22" data-name="Path 22" d="M429.064,120.759a2.423,2.423,0,0,0,1.033-.2,3.592,3.592,0,0,0,.9-.645l.749.768a3.446,3.446,0,0,1-2.651,1.21,3.557,3.557,0,0,1-2.588-1,3.647,3.647,0,0,1,.02-5.1,3.63,3.63,0,0,1,2.646-1.023,3.461,3.461,0,0,1,2.671,1.18l-.738.807a3.218,3.218,0,0,0-.93-.659,2.6,2.6,0,0,0-1.028-.186,2.443,2.443,0,0,0-1.751.673,2.274,2.274,0,0,0-.709,1.723,2.378,2.378,0,0,0,.7,1.751,2.279,2.279,0,0,0,1.668.7" transform="translate(-183.535 -49.506)" fill="#909497"/>
    <path id="Path_23" data-name="Path 23" d="M438.994,121.939v-6.877h1.161v2.981h3.413v-2.981h1.161v6.877h-1.161v-2.814h-3.413v2.814Z" transform="translate(-189.363 -49.633)" fill="#909497"/>
    <path id="Path_24" data-name="Path 24" d="M457.592,115.062h1.161v6.877h-1.26l-3.895-5.017v5.017h-1.161v-6.877H453.6l3.993,5.135Z" transform="translate(-195.162 -49.633)" fill="#909497"/>
    <path id="Path_25" data-name="Path 25" d="M472.319,120.863a3.771,3.771,0,0,1-5.155,0,3.609,3.609,0,0,1,0-5.076,3.772,3.772,0,0,1,5.155,0,3.609,3.609,0,0,1,0,5.076m-.851-4.3a2.411,2.411,0,0,0-3.453,0,2.568,2.568,0,0,0,0,3.532,2.411,2.411,0,0,0,3.453,0,2.568,2.568,0,0,0,0-3.532" transform="translate(-201.066 -49.506)" fill="#909497"/>
    <path id="Path_26" data-name="Path 26" d="M481.432,121.939v-6.877h1.161v5.775h3.138v1.1Z" transform="translate(-207.67 -49.633)" fill="#909497"/>
    <path id="Path_27" data-name="Path 27" d="M496.3,120.863a3.771,3.771,0,0,1-5.155,0,3.609,3.609,0,0,1,0-5.076,3.772,3.772,0,0,1,5.155,0,3.609,3.609,0,0,1,0,5.076m-.851-4.3a2.411,2.411,0,0,0-3.453,0,2.568,2.568,0,0,0,0,3.532,2.411,2.411,0,0,0,3.453,0,2.568,2.568,0,0,0,0-3.532" transform="translate(-211.407 -49.506)" fill="#909497"/>
    <path id="Path_28" data-name="Path 28" d="M509.835,118.467H511v2.351a3.57,3.57,0,0,1-2.784,1.072,3.511,3.511,0,0,1-2.554-1,3.647,3.647,0,0,1,.02-5.1,3.494,3.494,0,0,1,2.534-1.023,3.6,3.6,0,0,1,2.468.866l-.62.885a2.419,2.419,0,0,0-.81-.477,3.09,3.09,0,0,0-.95-.132,2.44,2.44,0,0,0-1.751.674,2.42,2.42,0,0,0,1.647,4.2,2.973,2.973,0,0,0,1.638-.423Z" transform="translate(-217.676 -49.506)" fill="#909497"/>
    <path id="Path_29" data-name="Path 29" d="M520.238,121.939h-1.18v-2.715l-2.558-4.162h1.269l1.879,3.129,1.879-3.129H522.8l-2.558,4.162Z" transform="translate(-222.797 -49.633)" fill="#909497"/>
  </g>
</svg>
